<?xml version="1.0" standalone="no"?>
<!DOCTYPE svg PUBLIC "-//W3C//DTD SVG 20010904//EN"
 "http://www.w3.org/TR/2001/REC-SVG-20010904/DTD/svg10.dtd">
<svg version="1.0" xmlns="http://www.w3.org/2000/svg"
 width="395.000000pt" height="395.000000pt" viewBox="0 0 395.000000 395.000000"
 preserveAspectRatio="xMidYMid meet">
<metadata>
Created by potrace 1.14, written by Peter Selinger 2001-2017
</metadata>
<g transform="translate(0.000000,395.000000) scale(0.100000,-0.100000)"
fill="#000000" stroke="none">
<path d="M1890 3648 c-25 -17 -91 -62 -146 -99 -99 -67 -120 -88 -105 -105 7
-8 65 -161 66 -174 0 -3 4 -11 8 -17 5 -7 6 -13 3 -13 -3 0 6 -25 19 -55 14
-30 22 -55 20 -55 -3 0 1 -13 10 -30 32 -62 25 -70 -97 -128 -62 -29 -125 -56
-140 -59 -23 -5 -28 -1 -34 23 -4 16 -30 79 -57 139 -27 61 -50 115 -51 120
-7 40 -47 59 -116 57 -29 -1 -248 -2 -270 -1 -57 1 -107 -13 -176 -51 -44 -24
-108 -59 -144 -78 -73 -39 -94 -58 -98 -87 -3 -21 -11 -66 -18 -102 -13 -67
-15 -79 -20 -95 -6 -19 -10 -42 -18 -91 -3 -19 -17 -88 -31 -153 -15 -66 -27
-125 -29 -133 -1 -8 -10 -19 -20 -26 -13 -10 -14 -14 -4 -18 8 -3 6 -6 -5 -6
-10 -1 -16 -5 -12 -11 7 -11 35 -2 35 13 0 5 15 24 33 42 17 17 54 55 80 83
26 29 52 52 57 52 6 0 10 4 10 8 0 14 118 131 124 124 3 -3 6 1 6 8 0 7 16 27
35 44 l34 31 153 -3 c84 -2 197 -4 251 -5 95 0 98 -1 92 -21 -3 -12 -7 -25 -9
-31 -1 -5 -11 -30 -22 -55 -11 -25 -28 -63 -36 -85 -9 -22 -29 -71 -45 -110
-15 -38 -27 -73 -26 -77 2 -5 -2 -8 -7 -8 -6 0 -10 -6 -10 -13 0 -8 -25 -74
-56 -148 -30 -74 -76 -186 -101 -249 -24 -63 -56 -140 -70 -170 -34 -73 -35
-97 -8 -150 42 -82 70 -145 67 -152 -1 -5 2 -8 8 -8 5 0 10 -4 10 -10 0 -5 16
-45 36 -87 19 -43 42 -91 49 -108 66 -146 84 -182 98 -194 9 -7 17 -19 17 -26
0 -8 4 -15 8 -17 4 -1 29 -35 55 -74 44 -67 53 -104 25 -104 -5 0 -52 -30
-105 -67 -52 -38 -105 -75 -116 -83 -12 -8 -28 -21 -35 -27 -7 -7 -17 -13 -21
-13 -11 0 -41 -56 -34 -64 3 -3 1 -6 -7 -6 -8 0 -9 -4 -3 -12 5 -7 10 -33 11
-58 1 -25 5 -72 8 -105 4 -33 7 -77 8 -97 1 -21 5 -40 8 -44 8 -7 64 -7 173 1
162 11 168 12 197 47 14 18 25 35 23 37 -3 2 4 16 13 30 10 14 27 44 37 66 11
22 25 43 30 47 6 4 7 8 2 8 -4 0 0 12 10 28 51 80 58 75 361 -215 42 -40 79
-73 84 -73 4 0 37 28 72 62 115 112 251 239 266 248 8 5 27 10 41 10 16 0 38
12 57 31 l30 31 27 -55 c14 -30 29 -58 33 -62 4 -4 7 -10 7 -14 0 -14 66 -150
79 -160 7 -6 37 -13 67 -16 30 -4 70 -8 89 -10 19 -3 56 -5 83 -6 26 -1 47 -5
47 -8 0 -8 67 -7 75 1 6 6 12 54 20 158 2 30 6 87 10 126 l6 72 -33 26 c-44
35 -40 32 -140 106 -49 36 -88 68 -88 73 0 4 -4 5 -10 2 -5 -3 -10 -2 -10 4 0
5 -9 12 -20 16 -23 7 -22 21 4 50 111 121 154 184 186 270 18 50 37 96 43 103
5 6 6 12 3 12 -4 0 -1 10 6 22 7 13 13 25 13 28 0 3 14 39 30 80 16 41 30 77
31 80 1 7 20 51 42 103 50 112 50 120 5 211 -145 291 -412 817 -430 848 -46
75 -51 73 204 70 188 -2 230 -5 239 -17 6 -8 14 -15 18 -15 4 0 29 -17 54 -37
62 -50 105 -82 229 -173 26 -19 55 -42 63 -51 8 -8 23 -18 32 -22 19 -7 34 8
18 18 -6 4 -8 11 -5 16 4 5 2 9 -3 9 -12 0 -43 86 -34 94 3 3 0 6 -6 6 -6 0
-16 17 -23 38 -6 20 -16 43 -22 50 -5 6 -6 12 -2 12 4 0 0 11 -9 25 -9 14 -14
25 -11 25 3 0 0 10 -7 23 -7 12 -13 24 -14 27 -1 5 0 4 -56 140 -22 52 -41
103 -43 112 -9 43 -39 74 -93 97 -31 14 -69 33 -84 43 -15 10 -30 17 -35 16
-4 -1 -31 10 -59 24 -49 26 -55 26 -256 28 -226 1 -217 3 -237 -65 -7 -22 -15
-47 -18 -55 -4 -8 -7 -17 -8 -20 -1 -5 -19 -63 -31 -100 -3 -8 -5 -16 -5 -18
1 -1 -5 -18 -13 -37 -15 -36 -16 -38 -16 -54 0 -23 -36 -16 -136 25 -60 25
-111 50 -115 56 -4 6 0 23 9 37 10 14 15 25 13 26 -5 0 18 74 28 90 3 6 6 15
8 20 6 25 80 232 87 244 6 10 -1 22 -25 42 -19 16 -40 34 -46 39 -7 6 -13 8
-13 6 0 -5 -170 110 -197 134 -20 17 -46 11 -93 -22z"/>
</g>
</svg>
